<svg xmlns="http://www.w3.org/2000/svg" width="1200" height="1200" viewBox="-1200 -1200 3600 3600"><rect x="-1200" y="-1200" width="100%" height="100%" fill="#f0f0f0"/><path fill="#ddd" d="m435.88 486.125-13 24.64q-2.33 4.07-4.95 5.91-2.62 1.85-6.5 1.85-4.07 0-8.82-3.01-4.76-3.01-11.35-6.69-6.6-3.69-15.43-6.7-8.82-3-20.85-3-10.86 0-19.01 2.62-8.15 2.62-13.68 7.27-5.53 4.66-8.25 11.16-2.71 6.5-2.71 14.26 0 9.89 5.53 16.49 5.53 6.59 14.64 11.25 9.12 4.65 20.76 8.34 11.64 3.69 23.86 7.86 12.23 4.17 23.87 9.7 11.64 5.53 20.75 13.97 9.12 8.43 14.65 20.66 5.53 12.22 5.53 29.68 0 19.01-6.5 35.6-6.5 16.58-19.01 28.9-12.51 12.32-30.56 19.4-18.04 7.08-41.32 7.08-13.38 0-26.38-2.62-13-2.61-24.93-7.46t-22.41-11.64q-10.47-6.79-18.62-15.14l15.32-25.02q1.94-2.72 5.05-4.56 3.1-1.84 6.59-1.84 4.85 0 10.48 3.97 5.63 3.98 13.39 8.83 7.76 4.85 18.14 8.83 10.37 3.97 24.92 3.97 22.31 0 34.54-10.57 12.22-10.57 12.22-30.36 0-11.06-5.53-18.04-5.53-6.99-14.65-11.74-9.12-4.75-20.76-8.05-11.64-3.3-23.66-7.18-12.03-3.88-23.67-9.31-11.64-5.43-20.76-14.16-9.12-8.73-14.65-21.83-5.53-13.09-5.53-32.3 0-15.32 6.12-29.87 6.11-14.55 17.75-25.81 11.64-11.25 28.71-18.04 17.07-6.79 39.19-6.79 24.83 0 45.78 7.76 20.95 7.76 35.7 21.73Zm299.53 113.88q0 30.84-10.28 56.65-10.28 25.8-28.91 44.42-18.62 18.63-44.81 28.91-26.19 10.28-58.2 10.28H486.32v-280.52h106.89q32.01 0 58.2 10.38 26.19 10.37 44.81 28.9 18.63 18.53 28.91 44.33 10.28 25.8 10.28 56.65Zm-53.54 0q0-23.09-6.11-41.42-6.11-18.33-17.66-31.04-11.54-12.71-27.93-19.5-16.39-6.79-36.96-6.79H538.7v197.49h54.51q20.57 0 36.96-6.79t27.93-19.49q11.55-12.71 17.66-31.04 6.11-18.34 6.11-41.42Zm261.9-113.88-13 24.64q-2.33 4.07-4.95 5.91-2.61 1.85-6.49 1.85-4.08 0-8.83-3.01t-11.35-6.69q-6.6-3.69-15.42-6.7-8.83-3-20.86-3-10.86 0-19.01 2.62-8.15 2.62-13.68 7.27-5.53 4.66-8.24 11.16-2.72 6.5-2.72 14.26 0 9.89 5.53 16.49 5.53 6.59 14.65 11.25 9.12 4.65 20.76 8.34 11.64 3.69 23.86 7.86 12.22 4.17 23.86 9.7 11.64 5.53 20.76 13.97 9.11 8.43 14.64 20.66 5.53 12.22 5.53 29.68 0 19.01-6.5 35.6-6.49 16.58-19.01 28.9-12.51 12.32-30.55 19.4-18.04 7.08-41.32 7.08-13.39 0-26.39-2.62-13-2.61-24.93-7.46t-22.4-11.64q-10.48-6.79-18.63-15.14l15.33-25.02q1.94-2.72 5.04-4.56 3.11-1.84 6.6-1.84 4.85 0 10.47 3.97 5.63 3.98 13.39 8.83 7.76 4.85 18.14 8.83 10.38 3.97 24.93 3.97 22.31 0 34.53-10.57 12.22-10.57 12.22-30.36 0-11.06-5.53-18.04-5.53-6.99-14.64-11.74-9.12-4.75-20.76-8.05-11.64-3.3-23.67-7.18-12.03-3.88-23.67-9.31-11.64-5.43-20.76-14.16-9.11-8.73-14.64-21.83-5.53-13.09-5.53-32.3 0-15.32 6.11-29.87t17.75-25.81q11.64-11.25 28.71-18.04 17.07-6.79 39.19-6.79 24.83 0 45.78 7.76 20.95 7.76 35.7 21.73Z"/></svg>